<?xml version="1.0" encoding="UTF-8"?>
<!DOCTYPE svg PUBLIC "-//W3C//DTD SVG 1.0//EN" "http://www.w3.org/TR/2001/REC-SVG-20010904/DTD/svg10.dtd">
<!-- Creator: CorelDRAW X7 -->
<svg xmlns="http://www.w3.org/2000/svg" xml:space="preserve" width="14.4817mm" height="14.4817mm" version="1.0" shape-rendering="geometricPrecision" text-rendering="geometricPrecision" image-rendering="optimizeQuality" fill-rule="evenodd" clip-rule="evenodd"
viewBox="0 0 214 214"
 xmlns:xlink="http://www.w3.org/1999/xlink">
 <g id="Layer_x0020_1">
  <metadata id="CorelCorpID_0Corel-Layer"/>
  <g id="_2992611686080">
   <path fill="#00A0E3" fill-rule="nonzero" d="M115 98l36 0 0 16 -36 0 0 40 -16 0 0 -40 -36 0 0 -16 36 0 0 -38 16 0 0 38zm-8 101c25,0 49,-10 65,-27 17,-16 27,-40 27,-65 0,-25 -10,-48 -27,-65 -16,-17 -40,-27 -65,-27 -25,0 -48,10 -65,27 -17,17 -27,40 -27,65 0,25 10,49 27,65 17,17 40,27 65,27zm73 -19c-19,18 -44,30 -73,30 -28,0 -54,-12 -73,-30 -18,-19 -30,-44 -30,-73 0,-28 12,-54 30,-73 19,-18 45,-30 73,-30 29,0 54,12 73,30 18,19 30,45 30,73 0,29 -12,54 -30,73z"/>
   <rect fill="none" fill-rule="nonzero" width="214" height="214"/>
  </g>
 </g>
</svg>
