<?xml version="1.0" encoding="UTF-8"?>
<!DOCTYPE svg PUBLIC "-//W3C//DTD SVG 1.1//EN" "http://www.w3.org/Graphics/SVG/1.1/DTD/svg11.dtd">
<!-- Creator: CorelDRAW X7 width="48.6834mm" height="48.6834mm" -->
<svg xmlns="http://www.w3.org/2000/svg" xml:space="preserve" width="25px" height="25px" version="1.1" shape-rendering="geometricPrecision" text-rendering="geometricPrecision" image-rendering="optimizeQuality" fill-rule="evenodd" clip-rule="evenodd"
viewBox="0 0 1374 1374"
 xmlns:xlink="http://www.w3.org/1999/xlink">
 <g id="Layer_x0020_1">
  <metadata id="CorelCorpID_0Corel-Layer"/>
  <g id="_2609439628560">
   <rect fill="none" width="1374" height="1374"/>
   <g>
    <path fill="#00A0E3" d="M641 28c-195,21 -316,81 -444,215 -176,185 -226,498 -97,747 43,84 89,135 144,188 102,96 287,187 489,169 371,-33 635,-341 612,-704 -12,-185 -93,-330 -216,-447 -99,-92 -292,-190 -488,-168zm46 1238c320,0 579,-259 579,-579 0,-320 -259,-579 -579,-579 -320,0 -579,259 -579,579 0,320 259,579 579,579z"/>
    <rect fill="#00A0E3" x="325" y="628" width="724" height="118" rx="59" ry="59"/>
   </g>
  </g>
 </g>
</svg>
